<mxfile host="app.diagrams.net" modified="2023-11-19T16:53:05.263Z" agent="Mozilla/5.0 (Windows NT 10.0; Win64; x64) AppleWebKit/537.36 (KHTML, like Gecko) Chrome/119.0.0.0 Safari/537.36" etag="fGeiuJ7KrQiLSaYnUE1W" version="22.1.3" type="github">
  <diagram name="第 1 页" id="cIwJofdsYep9ioO_ulnx">
    <mxGraphModel dx="3093" dy="822" grid="1" gridSize="10" guides="1" tooltips="1" connect="1" arrows="1" fold="1" page="1" pageScale="1" pageWidth="827" pageHeight="1169" math="0" shadow="0">
      <root>
        <mxCell id="0" />
        <mxCell id="1" parent="0" />
        <mxCell id="JJ1opr2XN2AXkkUTquU8-1" value="&lt;h1&gt;IMaaCommon&lt;/h1&gt;&lt;p&gt;Handle&lt;/p&gt;&lt;p&gt;Callback&lt;/p&gt;" style="rounded=0;whiteSpace=wrap;html=1;" vertex="1" parent="1">
          <mxGeometry x="160" y="240" width="200" height="100" as="geometry" />
        </mxCell>
        <mxCell id="JJ1opr2XN2AXkkUTquU8-2" value="&lt;h1&gt;IMaaOption&lt;/h1&gt;&lt;p&gt;SetOption&lt;/p&gt;" style="rounded=0;whiteSpace=wrap;html=1;" vertex="1" parent="1">
          <mxGeometry x="380" y="240" width="200" height="100" as="geometry" />
        </mxCell>
        <mxCell id="JJ1opr2XN2AXkkUTquU8-4" value="&lt;h1 style=&quot;border-color: var(--border-color);&quot;&gt;IMaaPost&lt;/h1&gt;&lt;h1&gt;&lt;p style=&quot;border-color: var(--border-color); font-size: 12px; font-weight: 400;&quot;&gt;IMaaJob.SetParam&lt;/p&gt;&lt;p style=&quot;border-color: var(--border-color); font-size: 12px; font-weight: 400;&quot;&gt;...&lt;/p&gt;&lt;/h1&gt;" style="rounded=0;whiteSpace=wrap;html=1;" vertex="1" parent="1">
          <mxGeometry x="600" y="240" width="200" height="100" as="geometry" />
        </mxCell>
        <mxCell id="JJ1opr2XN2AXkkUTquU8-5" value="&lt;h1&gt;IDisposable&lt;/h1&gt;&lt;p&gt;Dispose&lt;br&gt;&lt;/p&gt;" style="rounded=0;whiteSpace=wrap;html=1;" vertex="1" parent="1">
          <mxGeometry x="-60" y="240" width="200" height="100" as="geometry" />
        </mxCell>
        <mxCell id="JJ1opr2XN2AXkkUTquU8-6" value="&lt;h1&gt;MaaCommon&lt;/h1&gt;" style="rounded=0;whiteSpace=wrap;html=1;" vertex="1" parent="1">
          <mxGeometry x="160" y="560" width="200" height="100" as="geometry" />
        </mxCell>
        <mxCell id="JJ1opr2XN2AXkkUTquU8-7" value="&lt;h1&gt;MaaOption&lt;/h1&gt;" style="rounded=0;whiteSpace=wrap;html=1;" vertex="1" parent="1">
          <mxGeometry x="380" y="400" width="200" height="100" as="geometry" />
        </mxCell>
        <mxCell id="JJ1opr2XN2AXkkUTquU8-8" value="" style="endArrow=classic;html=1;rounded=0;entryX=0.5;entryY=0;entryDx=0;entryDy=0;exitX=0.5;exitY=1;exitDx=0;exitDy=0;" edge="1" parent="1" source="JJ1opr2XN2AXkkUTquU8-2" target="JJ1opr2XN2AXkkUTquU8-7">
          <mxGeometry width="50" height="50" relative="1" as="geometry">
            <mxPoint x="390" y="500" as="sourcePoint" />
            <mxPoint x="440" y="450" as="targetPoint" />
          </mxGeometry>
        </mxCell>
        <mxCell id="JJ1opr2XN2AXkkUTquU8-9" value="" style="endArrow=classic;html=1;rounded=0;exitX=0.5;exitY=1;exitDx=0;exitDy=0;entryX=0.5;entryY=0;entryDx=0;entryDy=0;" edge="1" parent="1" source="JJ1opr2XN2AXkkUTquU8-1" target="JJ1opr2XN2AXkkUTquU8-6">
          <mxGeometry width="50" height="50" relative="1" as="geometry">
            <mxPoint x="260" y="390" as="sourcePoint" />
            <mxPoint x="310" y="340" as="targetPoint" />
          </mxGeometry>
        </mxCell>
        <mxCell id="JJ1opr2XN2AXkkUTquU8-10" value="" style="endArrow=classic;html=1;rounded=0;exitX=0.5;exitY=1;exitDx=0;exitDy=0;entryX=1;entryY=0.5;entryDx=0;entryDy=0;" edge="1" parent="1" source="JJ1opr2XN2AXkkUTquU8-7" target="JJ1opr2XN2AXkkUTquU8-6">
          <mxGeometry width="50" height="50" relative="1" as="geometry">
            <mxPoint x="510" y="620" as="sourcePoint" />
            <mxPoint x="560" y="570" as="targetPoint" />
            <Array as="points">
              <mxPoint x="480" y="610" />
            </Array>
          </mxGeometry>
        </mxCell>
        <mxCell id="JJ1opr2XN2AXkkUTquU8-11" value="" style="endArrow=classic;html=1;rounded=0;exitX=0.5;exitY=1;exitDx=0;exitDy=0;entryX=0;entryY=0.5;entryDx=0;entryDy=0;" edge="1" parent="1" source="JJ1opr2XN2AXkkUTquU8-5" target="JJ1opr2XN2AXkkUTquU8-6">
          <mxGeometry width="50" height="50" relative="1" as="geometry">
            <mxPoint x="-20" y="540" as="sourcePoint" />
            <mxPoint x="30" y="490" as="targetPoint" />
            <Array as="points">
              <mxPoint x="40" y="610" />
            </Array>
          </mxGeometry>
        </mxCell>
        <mxCell id="JJ1opr2XN2AXkkUTquU8-12" value="&lt;h2&gt;&lt;/h2&gt;&lt;h2&gt;IMaaController&lt;br&gt;IMaaInstance&lt;/h2&gt;&lt;h2&gt;IMaaResource&lt;/h2&gt;" style="rounded=0;whiteSpace=wrap;html=1;spacing=2;" vertex="1" parent="1">
          <mxGeometry x="-270" y="400" width="200" height="100" as="geometry" />
        </mxCell>
        <mxCell id="JJ1opr2XN2AXkkUTquU8-13" value="&lt;h2&gt;&lt;/h2&gt;&lt;h2&gt;MaaController&lt;br&gt;MaaInstance&lt;/h2&gt;&lt;h2&gt;MaaResource&lt;/h2&gt;" style="rounded=0;whiteSpace=wrap;html=1;spacing=2;" vertex="1" parent="1">
          <mxGeometry x="-270" y="740" width="200" height="100" as="geometry" />
        </mxCell>
        <mxCell id="JJ1opr2XN2AXkkUTquU8-14" value="" style="endArrow=classic;html=1;rounded=0;exitX=0.5;exitY=1;exitDx=0;exitDy=0;entryX=0.5;entryY=0;entryDx=0;entryDy=0;" edge="1" parent="1" source="JJ1opr2XN2AXkkUTquU8-12" target="JJ1opr2XN2AXkkUTquU8-13">
          <mxGeometry width="50" height="50" relative="1" as="geometry">
            <mxPoint x="-170" y="670" as="sourcePoint" />
            <mxPoint x="-120" y="620" as="targetPoint" />
          </mxGeometry>
        </mxCell>
        <mxCell id="JJ1opr2XN2AXkkUTquU8-15" value="" style="endArrow=classic;html=1;rounded=0;exitX=0.5;exitY=0;exitDx=0;exitDy=0;entryX=0.5;entryY=0;entryDx=0;entryDy=0;" edge="1" parent="1" source="JJ1opr2XN2AXkkUTquU8-5" target="JJ1opr2XN2AXkkUTquU8-12">
          <mxGeometry width="50" height="50" relative="1" as="geometry">
            <mxPoint x="10" y="200" as="sourcePoint" />
            <mxPoint x="60" y="150" as="targetPoint" />
          </mxGeometry>
        </mxCell>
        <mxCell id="JJ1opr2XN2AXkkUTquU8-16" value="" style="endArrow=classic;html=1;rounded=0;exitX=0.5;exitY=0;exitDx=0;exitDy=0;entryX=1;entryY=0.25;entryDx=0;entryDy=0;" edge="1" parent="1" source="JJ1opr2XN2AXkkUTquU8-1" target="JJ1opr2XN2AXkkUTquU8-12">
          <mxGeometry width="50" height="50" relative="1" as="geometry">
            <mxPoint x="240" y="220" as="sourcePoint" />
            <mxPoint x="290" y="170" as="targetPoint" />
          </mxGeometry>
        </mxCell>
        <mxCell id="JJ1opr2XN2AXkkUTquU8-17" value="" style="endArrow=classic;html=1;rounded=0;exitX=0.5;exitY=0;exitDx=0;exitDy=0;entryX=1;entryY=0.5;entryDx=0;entryDy=0;" edge="1" parent="1" source="JJ1opr2XN2AXkkUTquU8-2" target="JJ1opr2XN2AXkkUTquU8-12">
          <mxGeometry width="50" height="50" relative="1" as="geometry">
            <mxPoint x="470" y="230" as="sourcePoint" />
            <mxPoint x="520" y="180" as="targetPoint" />
          </mxGeometry>
        </mxCell>
        <mxCell id="JJ1opr2XN2AXkkUTquU8-18" value="" style="endArrow=classic;html=1;rounded=0;exitX=0.5;exitY=0;exitDx=0;exitDy=0;entryX=1;entryY=0.75;entryDx=0;entryDy=0;" edge="1" parent="1" source="JJ1opr2XN2AXkkUTquU8-4" target="JJ1opr2XN2AXkkUTquU8-12">
          <mxGeometry width="50" height="50" relative="1" as="geometry">
            <mxPoint x="700" y="230" as="sourcePoint" />
            <mxPoint x="750" y="180" as="targetPoint" />
          </mxGeometry>
        </mxCell>
        <mxCell id="JJ1opr2XN2AXkkUTquU8-19" value="" style="endArrow=classic;html=1;rounded=0;exitX=0.5;exitY=1;exitDx=0;exitDy=0;entryX=1;entryY=0.5;entryDx=0;entryDy=0;" edge="1" parent="1" source="JJ1opr2XN2AXkkUTquU8-6" target="JJ1opr2XN2AXkkUTquU8-13">
          <mxGeometry width="50" height="50" relative="1" as="geometry">
            <mxPoint x="240" y="760" as="sourcePoint" />
            <mxPoint x="290" y="710" as="targetPoint" />
          </mxGeometry>
        </mxCell>
      </root>
    </mxGraphModel>
  </diagram>
</mxfile>
